<svg width="25" height="25" viewBox="0 0 25 25" fill="none" xmlns="http://www.w3.org/2000/svg">
<g clip-path="url(#clip0)">
<path d="M21.4665 6.42237C21.4436 6.15169 21.2156 5.94429 20.9439 5.94695H16.9723V4.44189C16.9723 1.98864 14.9835 0 12.5304 0C10.0772 0 8.08854 1.98864 8.08854 4.44189V5.94695H4.11698C3.8465 5.94797 3.62073 6.15332 3.5944 6.42237L2.2253 22.1625C2.16304 22.8923 2.40963 23.6149 2.90546 24.1544C3.40109 24.6937 4.10024 25.0005 4.83286 24.9999H20.2331C20.9657 25.0005 21.6649 24.6937 22.1605 24.1544C22.6563 23.6149 22.9031 22.8923 22.8409 22.1625L21.4665 6.42237ZM9.13369 4.44189C9.13369 2.56593 10.6545 1.04515 12.5304 1.04515C14.4064 1.04515 15.9272 2.56593 15.9272 4.44189V5.94695H9.13369V4.44189ZM21.3881 23.4479C21.0925 23.7733 20.6726 23.9576 20.2331 23.9548H4.82755C4.38806 23.955 3.96878 23.7706 3.67156 23.4469C3.37455 23.1229 3.22697 22.6892 3.26514 22.2513L4.5924 6.9921H8.08854V10.2529C7.24814 10.5115 6.72332 11.3458 6.85417 12.2154C6.98481 13.0848 7.73193 13.7278 8.61112 13.7278C9.49031 13.7278 10.2372 13.0848 10.3681 12.2154C10.4987 11.3458 9.9739 10.5115 9.13369 10.2529V6.98679H15.9272V10.2529C15.0868 10.5115 14.5619 11.3458 14.6928 12.2154C14.8234 13.0848 15.5705 13.7278 16.4497 13.7278C17.3289 13.7278 18.0758 13.0848 18.2067 12.2154C18.3373 11.3458 17.8125 10.5115 16.9723 10.2529V6.98679H20.4632L21.7904 22.246C21.8333 22.6857 21.6869 23.1227 21.3881 23.4479ZM8.53273 11.225C8.58479 11.2319 8.63745 11.2319 8.68951 11.225C9.07592 11.2666 9.36252 11.6034 9.3417 11.9915C9.32068 12.3797 8.99978 12.6839 8.61112 12.6839C8.22225 12.6839 7.90136 12.3797 7.88053 11.9915C7.85971 11.6034 8.14611 11.2666 8.53273 11.225ZM16.3714 11.225C16.4234 11.2319 16.4761 11.2319 16.5281 11.225C16.9145 11.2666 17.2011 11.6034 17.1803 11.9915C17.1593 12.3797 16.8384 12.6839 16.4497 12.6839C16.0609 12.6839 15.74 12.3797 15.7192 11.9915C15.6983 11.6034 15.9847 11.2666 16.3714 11.225Z" fill="black"/>
</g>
<defs>
<clipPath id="clip0">
<rect width="25" height="25" fill="white"/>
</clipPath>
</defs>
</svg>
