<svg width="40" height="40" viewBox="0 0 40 40" fill="none" xmlns="http://www.w3.org/2000/svg">
<path d="M37.1998 22.417L36.164 18.2736C36.4472 18.2135 36.6597 17.9622 36.6597 17.6612V16.9932C36.6597 15.5427 35.4796 14.3627 34.0292 14.3627H29.3111V12.9848C29.3111 12.2711 28.7305 11.6904 28.0167 11.6904H19.2438L24.575 9.55793C24.8962 9.42949 25.0523 9.06496 24.9239 8.74379C24.7955 8.42269 24.4312 8.26637 24.1098 8.39488L19.7446 10.1409C21.0748 9.28746 22.3908 8.34816 22.8918 7.69129C23.8672 6.41246 23.6202 4.57855 22.3413 3.60316C21.0625 2.6277 19.2286 2.87481 18.2532 4.15363C17.5405 5.08816 16.6002 7.71402 15.9916 9.56441C15.383 7.71418 14.4427 5.08816 13.7301 4.15363C12.7548 2.87481 10.9208 2.62785 9.64195 3.60316C8.36312 4.57848 8.11617 6.41238 9.09148 7.69129C9.5925 8.34824 10.9084 9.28746 12.2387 10.1409L7.87352 8.39488C7.55219 8.26621 7.18781 8.42262 7.05937 8.74379C6.93086 9.06496 7.08711 9.42949 7.40828 9.55793L12.7395 11.6904H3.96656C3.25281 11.6904 2.67219 12.2711 2.67219 12.9848V24.3418C2.67219 24.6877 2.95258 24.9682 3.29852 24.9682C3.64438 24.9682 3.92484 24.6878 3.92484 24.3418V12.9848C3.92484 12.9618 3.94352 12.9431 3.96656 12.9431H28.0166C28.0397 12.9431 28.0584 12.9618 28.0584 12.9848V24.342C28.0584 24.6878 28.3388 24.9683 28.6847 24.9683C29.0305 24.9683 29.311 24.6879 29.311 24.342V23.632H36.699C36.6997 23.632 36.7002 23.6321 36.7009 23.6321C36.7016 23.6321 36.7023 23.6321 36.703 23.6321C37.612 23.6328 38.3839 24.2295 38.6489 25.0517H36.7014C36.3555 25.0517 36.0751 25.3321 36.0751 25.678V27.0141C36.0751 28.0962 36.9554 28.9765 38.0375 28.9765H38.7473V31.7322H37.1097C36.5717 30.1789 35.0951 29.0599 33.3611 29.0599C31.6271 29.0599 30.1504 30.1789 29.6125 31.7322H29.3109V27.014C29.3109 26.6682 29.0305 26.3877 28.6846 26.3877C28.3387 26.3877 28.0583 26.6681 28.0583 27.014V31.7321H15.0638C14.5259 30.1789 13.0492 29.0599 11.3152 29.0599C9.58125 29.0599 8.10453 30.1788 7.56664 31.7321H3.96656C3.94352 31.7321 3.92484 31.7135 3.92484 31.6904V30.3125H6.63883C6.98469 30.3125 7.26516 30.0321 7.26516 29.6862C7.26516 29.3403 6.98477 29.0599 6.63883 29.0599H0.626328C0.280469 29.0599 0 29.3403 0 29.6862C0 30.0321 0.280391 30.3125 0.626328 30.3125H2.67227V31.6904C2.67227 32.4042 3.25289 32.9848 3.96664 32.9848H7.34977C7.34961 32.9987 7.34867 33.0125 7.34867 33.0265C7.34867 35.2136 9.12813 36.9931 11.3152 36.9931C13.5023 36.9931 15.2818 35.2136 15.2818 33.0265C15.2818 33.0124 15.2809 32.9987 15.2807 32.9848H29.3955C29.3954 32.9987 29.3945 33.0125 29.3945 33.0265C29.3945 35.2136 31.1739 36.9931 33.361 36.9931C35.5481 36.9931 37.3276 35.2136 37.3276 33.0265C37.3276 33.0124 37.3266 32.9987 37.3265 32.9848H39.3736C39.7195 32.9848 39.9999 32.7044 39.9999 32.3585V25.6779C40 24.0284 38.783 22.6579 37.1998 22.417ZM13.5078 9.45769C11.0373 7.92246 10.3045 7.21613 10.0875 6.9316C9.53102 6.20199 9.67195 5.15566 10.4016 4.59918C10.7024 4.36981 11.057 4.25895 11.4089 4.25895C11.9106 4.25895 12.407 4.48441 12.7341 4.91332C13.34 5.7077 14.2888 8.38137 14.9152 10.308C14.4925 10.0591 14.0066 9.76777 13.5078 9.45769ZM17.0682 10.3079C17.6946 8.38137 18.6434 5.70777 19.2492 4.91324C19.8057 4.18363 20.852 4.04277 21.5816 4.59918C22.3113 5.15566 22.4522 6.20199 21.8958 6.9316C21.6788 7.21605 20.946 7.92246 18.4756 9.45762C17.977 9.76762 17.491 10.059 17.0682 10.3079ZM29.3111 15.6152H34.0292C34.789 15.6152 35.4071 16.2333 35.4071 16.9931V17.0348H29.3111V15.6152ZM29.3111 22.3793V18.2875H34.8763L35.8993 22.3793H29.3111ZM11.3152 35.7405C9.81875 35.7405 8.60125 34.523 8.60125 33.0265C8.60125 31.53 9.81875 30.3125 11.3152 30.3125C12.8117 30.3125 14.0292 31.53 14.0292 33.0265C14.0292 34.523 12.8117 35.7405 11.3152 35.7405ZM33.3612 35.7405C31.8647 35.7405 30.6472 34.523 30.6472 33.0265C30.6472 31.53 31.8647 30.3125 33.3612 30.3125C34.8577 30.3125 36.0752 31.53 36.0752 33.0265C36.0752 34.523 34.8577 35.7405 33.3612 35.7405ZM38.7474 27.7238H38.0376C37.6462 27.7238 37.3277 27.4053 37.3277 27.0139V26.3041H38.7473V27.7238H38.7474Z" fill="black"/>
<path d="M11.3152 31.7322C10.6015 31.7322 10.0208 32.3128 10.0208 33.0266C10.0208 33.7403 10.6015 34.3209 11.3152 34.3209C12.029 34.3209 12.6096 33.7403 12.6096 33.0266C12.6096 32.3128 12.029 31.7322 11.3152 31.7322Z" fill="black"/>
<path d="M33.3612 31.7322C32.6475 31.7322 32.0668 32.3128 32.0668 33.0266C32.0668 33.7403 32.6475 34.3209 33.3612 34.3209C34.0749 34.3209 34.6556 33.7403 34.6556 33.0266C34.6556 32.3128 34.0749 31.7322 33.3612 31.7322Z" fill="black"/>
<path d="M26.0125 29.0599H16.6597C16.3138 29.0599 16.0333 29.3403 16.0333 29.6863C16.0333 30.0322 16.3137 30.3126 16.6597 30.3126H26.0125C26.3583 30.3126 26.6388 30.0322 26.6388 29.6863C26.6388 29.3403 26.3584 29.0599 26.0125 29.0599Z" fill="black"/>
<path d="M9.9791 26.3877H1.96239C1.61653 26.3877 1.33606 26.6681 1.33606 27.014C1.33606 27.36 1.61645 27.6404 1.96239 27.6404H9.9791C10.325 27.6404 10.6054 27.36 10.6054 27.014C10.6054 26.6681 10.325 26.3877 9.9791 26.3877Z" fill="black"/>
<path fill-rule="evenodd" clip-rule="evenodd" d="M15.75 12C16.1642 12 16.5 12.3358 16.5 12.75L16.5 27.25C16.5 27.6642 16.1642 28 15.75 28C15.3358 28 15 27.6642 15 27.25L15 12.75C15 12.3358 15.3358 12 15.75 12Z" fill="black"/>
</svg>
