<svg width="14" height="14" viewBox="0 0 14 14" fill="none" xmlns="http://www.w3.org/2000/svg">
<path d="M0.29223 2.9235C2.21368 4.49651 5.58521 7.26392 6.57615 8.1268C6.70918 8.24326 6.85186 8.30247 6.99998 8.30247C7.1478 8.30247 7.29023 8.24382 7.42296 8.12791C8.41475 7.26418 11.7863 4.49651 13.7078 2.9235C13.8274 2.82575 13.8456 2.65394 13.7488 2.53444C13.5249 2.2583 13.1911 2.09998 12.8333 2.09998H1.16666C0.808917 2.09998 0.475078 2.25831 0.251214 2.53447C0.154363 2.65394 0.172601 2.82575 0.29223 2.9235Z" fill="black"/>
<path d="M13.8308 3.77592C13.7274 3.7294 13.6058 3.74563 13.5198 3.81668C11.3889 5.56285 8.66939 7.80108 7.81375 8.54639C7.33351 8.96545 6.66701 8.96545 6.18565 8.54584C5.27362 7.75149 2.21966 5.2418 0.480211 3.81665C0.393613 3.7456 0.271715 3.72993 0.169176 3.77589C0.0660898 3.82218 0 3.92185 0 4.0317V11.1222C0 11.7442 0.523223 12.25 1.16668 12.25H12.8334C13.4768 12.25 14 11.7442 14 11.1222V4.0317C14 3.92185 13.9339 3.82191 13.8308 3.77592Z" fill="black"/>
</svg>
