<svg width="25" height="25" viewBox="0 0 25 25" fill="none" xmlns="http://www.w3.org/2000/svg">
<path d="M17.7538 15.3559C17.5299 15.1554 17.1859 15.1749 16.9864 15.3983C15.8527 16.6651 14.2179 17.3912 12.5 17.3912C10.7826 17.3912 9.14729 16.6651 8.01359 15.3983C7.81305 15.1749 7.47011 15.1554 7.2462 15.3559C7.02228 15.5559 7.00381 15.8994 7.20381 16.1233C8.54348 17.62 10.4739 18.4782 12.5 18.4782C14.5266 18.4782 16.4571 17.6195 17.7962 16.1233C17.9962 15.8994 17.9772 15.5559 17.7538 15.3559Z" fill="black"/>
<path d="M12.5 0C5.60761 0 0 5.60761 0 12.5C0 19.3924 5.60761 25 12.5 25C19.3924 25 25 19.3924 25 12.5C25 5.60761 19.3924 0 12.5 0ZM12.5 23.913C6.20652 23.913 1.08696 18.7935 1.08696 12.5C1.08696 6.20652 6.20652 1.08696 12.5 1.08696C18.7935 1.08696 23.913 6.20652 23.913 12.5C23.913 18.7935 18.7935 23.913 12.5 23.913Z" fill="black"/>
<path d="M16.8478 8.69568C15.3495 8.69568 14.1304 9.9147 14.1304 11.4131C14.1304 11.7131 14.3739 11.9565 14.6739 11.9565C14.9739 11.9565 15.2174 11.7131 15.2174 11.4131C15.2174 10.5142 15.9489 9.78263 16.8478 9.78263C17.7467 9.78263 18.4783 10.5142 18.4783 11.4131C18.4783 11.7131 18.7217 11.9565 19.0217 11.9565C19.3217 11.9565 19.5652 11.7131 19.5652 11.4131C19.5652 9.9147 18.3462 8.69568 16.8478 8.69568Z" fill="black"/>
<path d="M9.78262 11.4131C9.78262 11.7131 10.0261 11.9565 10.3261 11.9565C10.6261 11.9565 10.8696 11.7131 10.8696 11.4131C10.8696 9.9147 9.65055 8.69568 8.15218 8.69568C6.65381 8.69568 5.43478 9.9147 5.43478 11.4131C5.43478 11.7131 5.67826 11.9565 5.97826 11.9565C6.27826 11.9565 6.52174 11.7131 6.52174 11.4131C6.52174 10.5142 7.25326 9.78263 8.15218 9.78263C9.05109 9.78263 9.78262 10.5142 9.78262 11.4131Z" fill="black"/>
</svg>
