<svg width="14" height="14" viewBox="0 0 14 14" fill="none" xmlns="http://www.w3.org/2000/svg">
<g clip-path="url(#clip0)">
<path d="M13.0883 3.82323L7.27942 0.654564C7.105 0.559481 6.895 0.559481 6.72058 0.654564L0.912333 3.82323C0.349417 4.12948 0 4.71806 0 5.35973V11.6667C0 12.6316 0.785167 13.4167 1.75 13.4167H12.25C13.2148 13.4167 14 12.6316 14 11.6667V5.35973C14 4.71806 13.6506 4.12948 13.0883 3.82323ZM1.47058 4.84756L7 1.83115L12.5294 4.84698C12.7167 4.94965 12.8333 5.14565 12.8333 5.35973V6.08832L7.34183 8.95656C7.13125 9.06565 6.86875 9.06565 6.65992 8.95773L1.16667 6.08832V5.35973C1.16667 5.14565 1.28333 4.94965 1.47058 4.84756Z" fill="white"/>
</g>
<defs>
<clipPath id="clip0">
<rect width="14" height="14" fill="white"/>
</clipPath>
</defs>
</svg>
