<svg width="35" height="35" viewBox="0 0 35 35" fill="none" xmlns="http://www.w3.org/2000/svg">
<path fill-rule="evenodd" clip-rule="evenodd" d="M12.3048 17.5C12.3048 20.3647 14.6353 22.6951 17.5 22.6951C20.3646 22.6951 22.6951 20.3647 22.6951 17.5C22.6951 14.6353 20.3646 12.3049 17.5 12.3049C14.6353 12.3049 12.3048 14.6353 12.3048 17.5ZM17.5 13.4187C15.2496 13.4187 13.4187 15.2495 13.4187 17.5C13.4187 19.7502 15.2496 21.5813 17.5 21.5813C19.7504 21.5813 21.5813 19.7502 21.5813 17.5C21.5813 15.2495 19.7504 13.4187 17.5 13.4187Z" fill="white"/>
<path fill-rule="evenodd" clip-rule="evenodd" d="M21.2843 11.9949C21.2843 12.8416 21.9728 13.53 22.8194 13.53C23.6659 13.53 24.3546 12.8416 24.3546 11.9949C24.3546 11.1484 23.6659 10.4597 22.8194 10.4597C21.9728 10.4597 21.2843 11.1484 21.2843 11.9949ZM22.3981 11.9949C22.3981 11.7627 22.5871 11.5737 22.8194 11.5737C23.0517 11.5737 23.2408 11.7625 23.2408 11.9949C23.2408 12.2273 23.0517 12.4163 22.8194 12.4163C22.5871 12.4163 22.3981 12.2271 22.3981 11.9949Z" fill="white"/>
<path fill-rule="evenodd" clip-rule="evenodd" d="M17.5 35C27.165 35 35 27.165 35 17.5C35 7.83496 27.165 0 17.5 0C7.83502 0 0 7.83496 0 17.5C0 27.165 7.83502 35 17.5 35ZM13.1431 8H21.8568C24.6928 8 27 10.3071 27 13.1431V21.8569C27 24.6929 24.6928 27 21.857 27H13.1431C10.3072 27 8 24.6929 8 21.8569V13.1431C8 10.3071 10.3072 8 13.1431 8Z" fill="white"/>
</svg>
