<svg width="35" height="35" viewBox="0 0 35 35" fill="none" xmlns="http://www.w3.org/2000/svg">
<path fill-rule="evenodd" clip-rule="evenodd" d="M17.5 35C27.165 35 35 27.165 35 17.5C35 7.83496 27.165 0 17.5 0C7.83502 0 0 7.83496 0 17.5C0 27.165 7.83502 35 17.5 35ZM8.60841 14.1125H12.4227C12.592 14.1125 12.7291 14.2498 12.7291 14.4189V26.6726C12.7291 26.8418 12.592 26.979 12.4227 26.979H8.60841C8.43913 26.979 8.30196 26.8418 8.30196 26.6726V14.4189C8.30196 14.2498 8.43913 14.1125 8.60841 14.1125ZM10.517 8.021C9.12909 8.021 8 9.14868 8 10.5352C8 11.9221 9.12909 13.0503 10.517 13.0503C11.9037 13.0503 13.0319 11.9219 13.0319 10.5352C13.0319 9.14868 11.9037 8.021 10.517 8.021ZM18.7733 15.2148C19.4602 14.4666 20.5926 13.8079 22.1246 13.8079C26.4207 13.8079 27 16.9133 27 19.9514V26.6726C27 26.842 26.8628 26.979 26.6935 26.979H22.8862C22.7169 26.979 22.5797 26.842 22.5797 26.6726V20.7151C22.5797 19.0469 22.4565 17.771 20.9055 17.771C19.4813 17.771 18.9264 18.5669 18.9264 20.6099V26.6726C18.9264 26.8418 18.7892 26.979 18.6199 26.979H14.814C14.6447 26.979 14.5076 26.8418 14.5076 26.6726V14.4189C14.5076 14.2498 14.6447 14.1125 14.814 14.1125H18.4668C18.6361 14.1125 18.7733 14.2498 18.7733 14.4189V15.2148Z" fill="white"/>
</svg>
