<svg width="35" height="35" viewBox="0 0 35 35" fill="none" xmlns="http://www.w3.org/2000/svg">
<path fill-rule="evenodd" clip-rule="evenodd" d="M17.5 35C27.165 35 35 27.165 35 17.5C35 7.83496 27.165 0 17.5 0C7.83502 0 0 7.83496 0 17.5C0 27.165 7.83502 35 17.5 35ZM24.7556 12.2239C25.5406 12.1243 26.2934 11.9187 27 11.6089C26.4704 12.3972 25.8208 13.0825 25.0477 13.6311C25.0561 13.7961 25.062 13.9624 25.062 14.1345C25.062 19.2812 21.1432 25.2188 13.9755 25.2188C11.7703 25.2188 9.72543 24.5835 8 23.4707C8.30638 23.51 8.61275 23.5242 8.93219 23.5242C10.7538 23.5242 12.4365 22.8997 13.7617 21.8628C12.0589 21.8262 10.6268 20.6919 10.1221 19.1494C10.3584 19.2017 10.6101 19.2158 10.8595 19.2158C11.2181 19.2158 11.5637 19.1743 11.8808 19.0876C10.1102 18.7256 8.75999 17.1533 8.75999 15.2603V15.2175C9.28012 15.5039 9.89406 15.6855 10.5199 15.6973C9.48438 15.0051 8.78969 13.8093 8.78969 12.4602C8.78969 11.7417 8.98682 11.0745 9.32288 10.4915C11.2478 12.8557 14.1133 14.4077 17.3516 14.5657C17.2874 14.283 17.2613 13.9861 17.2613 13.6775C17.2613 11.5317 18.9974 9.78125 21.1539 9.78125C22.2654 9.78125 23.2843 10.2527 23.9992 11.0139C24.8851 10.8369 25.7163 10.5198 26.4692 10.071C26.1794 10.9841 25.5631 11.7417 24.7556 12.2239Z" fill="white"/>
</svg>
