<svg width="10" height="10" viewBox="0 0 10 10" fill="none" xmlns="http://www.w3.org/2000/svg">
<path d="M9.91281 4.10481L7.67936 6.395L8.20439 9.63629C8.25064 9.89493 7.97021 10.0843 7.74603 9.96168L5.00005 8.43906V0C5.11672 0 5.2334 0.0542302 5.2834 0.166862L6.66264 3.10781L9.73364 3.57502C9.99032 3.62091 10.0849 3.92335 9.91281 4.10481Z" fill="#EEEEEE"/>
<path d="M5.00005 0V8.43906L2.25407 9.96168C2.03364 10.0856 1.74904 9.89786 1.79571 9.6363L2.32074 6.395L0.0872844 4.10481C-0.0848081 3.92335 0.00936356 3.62091 0.266461 3.57502L3.33746 3.10781L4.7167 0.16686C4.7667 0.0542281 4.88338 0 5.00005 0Z" fill="#EEEEEE"/>
</svg>
