<svg width="40" height="40" viewBox="0 0 40 40" fill="none" xmlns="http://www.w3.org/2000/svg">
<path d="M7.36236 16.1631L6.8692 15.7787L16.3805 3.58337L29.3121 11.5021L28.9865 12.0359L16.5305 4.40781L7.36236 16.1631Z" fill="#2C3E50"/>
<path d="M16.6212 7.54495C18.0983 7.54495 19.2957 6.3475 19.2957 4.87037C19.2957 3.39325 18.0983 2.1958 16.6212 2.1958C15.144 2.1958 13.9466 3.39325 13.9466 4.87037C13.9466 6.3475 15.144 7.54495 16.6212 7.54495Z" fill="#415E72"/>
<path d="M16.6211 6.26427C17.391 6.26427 18.015 5.64022 18.015 4.87042C18.015 4.10061 17.391 3.47656 16.6211 3.47656C15.8513 3.47656 15.2273 4.10061 15.2273 4.87042C15.2273 5.64022 15.8513 6.26427 16.6211 6.26427Z" fill="#517A91"/>
<path d="M32.9403 10.9541L2.9469 16.6731C1.31937 16.9834 0.25157 18.5544 0.561899 20.1819L3.5508 35.8572C3.86113 37.4848 5.43206 38.5526 7.05959 38.2422L37.053 32.5232C38.6806 32.2129 39.7484 30.642 39.438 29.0144L36.4491 13.3391C36.1388 11.7116 34.5679 10.6438 32.9403 10.9541Z" fill="#33C0CB"/>
<g clip-path="url(#clip0)">
<path d="M18.8891 29.6181C18.788 29.763 18.6327 29.8612 18.4588 29.8917C18.2849 29.9221 18.1055 29.8826 17.9612 29.7807L13.6064 26.7239C13.1545 26.4068 13.0452 25.7832 13.3625 25.332L13.7452 24.7866C14.0625 24.3347 14.6853 24.2255 15.1372 24.5427L17.8559 26.4509L23.0117 19.1044C23.329 18.6525 23.9525 18.5432 24.4038 18.8605L24.9491 19.2433C25.401 19.5605 25.5102 20.1839 25.193 20.6352L18.8891 29.6181Z" fill="white"/>
</g>
<defs>
<clipPath id="clip0">
<rect width="13.0491" height="13.0491" fill="white" transform="translate(12 19.2521) rotate(-9.93807)"/>
</clipPath>
</defs>
</svg>
