<svg width="26" height="53" viewBox="0 0 26 53" fill="none" xmlns="http://www.w3.org/2000/svg">
<path d="M24.8825 0H1.09937C0.607843 0 0.209475 0.586486 0.209475 1.31013V50.3779C0.208432 51.361 0.581771 52.2617 1.1755 52.7106C1.76957 53.1599 2.48427 53.0816 3.02621 52.5074L12.991 41.9916L22.9557 52.5079C23.4983 53.0801 24.2123 53.1578 24.8061 52.709C25.3995 52.2602 25.7728 51.3605 25.7728 50.3779V1.31013C25.7728 0.586486 25.3741 0 24.8825 0Z" fill="#33C0CB"/>
<path d="M18.019 10.4331L13.1475 10.4331C12.7178 10.4331 12.349 10.4689 12.041 10.5405C11.7367 10.6157 11.486 10.7339 11.2891 10.895C11.0957 11.0562 10.9525 11.262 10.8594 11.5127C10.7699 11.7633 10.7251 12.0659 10.7251 12.4204C10.7251 12.7713 10.7699 13.0703 10.8594 13.3174C10.9525 13.568 11.0975 13.7721 11.2944 13.9297C11.4914 14.0908 11.742 14.2072 12.0464 14.2788C12.3507 14.354 12.7178 14.3916 13.1475 14.3916L13.3193 14.3916L13.3193 15.4819L13.0132 15.4819C11.9676 15.4819 11.1781 15.2223 10.6445 14.7031C10.111 14.1875 9.84424 13.423 9.84424 12.4097C9.84424 11.3999 10.1128 10.6354 10.6499 10.1162C11.1906 9.60059 11.9784 9.34277 13.0132 9.34277L17.0737 9.34277L17.0737 8L18.019 8L18.019 10.4331Z" fill="white"/>
<path d="M10 16.9805L15.0059 16.9805C16.0622 16.9805 16.8535 17.2383 17.3799 17.7539C17.9098 18.2695 18.1748 19.0358 18.1748 20.0527C18.1748 21.0625 17.908 21.8252 17.3745 22.3408C16.841 22.86 16.0514 23.1196 15.0059 23.1196L10 23.1196L10 22.0293L14.8716 22.0293C15.3048 22.0293 15.6737 21.9899 15.978 21.9111C16.286 21.8359 16.5366 21.7178 16.73 21.5566C16.9269 21.3955 17.0701 21.1896 17.1597 20.939C17.2492 20.6919 17.2939 20.3965 17.2939 20.0527C17.2939 19.7018 17.2492 19.401 17.1597 19.1504C17.0701 18.9033 16.9269 18.6992 16.73 18.5381C16.5366 18.377 16.286 18.2588 15.978 18.1836C15.6737 18.1084 15.3048 18.0708 14.8716 18.0708L10 18.0708L10 16.9805Z" fill="white"/>
<path d="M10 25.0371L15.0059 25.0371C16.055 25.0371 16.8446 25.2967 17.3745 25.8159C17.908 26.3351 18.1748 27.0924 18.1748 28.0879C18.1748 29.0869 17.9134 29.8514 17.3906 30.3813C16.8714 30.9113 16.0765 31.1763 15.0059 31.1763L14.6997 31.1763L14.6997 30.0859L14.8716 30.0859C15.3048 30.0859 15.6737 30.0465 15.978 29.9678C16.286 29.889 16.5366 29.7673 16.73 29.6025C16.9269 29.4378 17.0701 29.2301 17.1597 28.9795C17.2492 28.7288 17.2939 28.4316 17.2939 28.0879C17.2939 27.737 17.2492 27.438 17.1597 27.1909C17.0701 26.9438 16.9269 26.7415 16.73 26.584C16.5366 26.4264 16.286 26.3101 15.978 26.2349C15.6737 26.1632 15.3048 26.1274 14.8716 26.1274L10 26.1274L10 25.0371Z" fill="white"/>
</svg>
