<svg width="26" height="53" viewBox="0 0 26 53" fill="none" xmlns="http://www.w3.org/2000/svg">
<path d="M24.8825 0H1.09937C0.607843 0 0.209475 0.586486 0.209475 1.31013V50.3779C0.208432 51.361 0.581771 52.2617 1.1755 52.7106C1.76957 53.1599 2.48427 53.0816 3.02621 52.5074L12.991 41.9916L22.9557 52.5079C23.4983 53.0801 24.2123 53.1578 24.8061 52.709C25.3995 52.2602 25.7728 51.3605 25.7728 50.3779V1.31013C25.7728 0.586486 25.3741 0 24.8825 0Z" fill="#FF4D41"/>
<path d="M13.8179 11.6162C13.4491 11.6162 13.1035 11.5697 12.7812 11.4766C12.459 11.387 12.16 11.2671 11.8843 11.1167C11.6121 10.9663 11.3651 10.7926 11.1431 10.5957C10.9211 10.4023 10.7259 10.2036 10.5576 9.99951C10.3929 9.79899 10.255 9.60026 10.144 9.40332C10.0366 9.20638 9.95964 9.02913 9.91309 8.87158L9.91309 11.4712L9 11.4712L9 5.1333L10.7832 5.1333L10.7832 6.22363L9.91309 6.22363L9.91309 6.68555C9.91309 6.90397 9.95068 7.14925 10.0259 7.42139C10.1047 7.6971 10.2174 7.97461 10.3643 8.25391C10.5146 8.53678 10.6991 8.8125 10.9175 9.08105C11.1395 9.35319 11.3955 9.5931 11.6855 9.80078C11.9756 10.012 12.2979 10.1803 12.6523 10.3057C13.0104 10.4346 13.3989 10.499 13.8179 10.499C14.1867 10.499 14.5233 10.4561 14.8276 10.3701C15.1356 10.2842 15.397 10.1499 15.6118 9.96729C15.8302 9.78467 15.9985 9.55192 16.1167 9.26904C16.2384 8.98617 16.2993 8.64779 16.2993 8.25391C16.2993 7.86003 16.242 7.52344 16.1274 7.24414C16.0129 6.96484 15.8553 6.73568 15.6548 6.55664C15.4543 6.38118 15.2179 6.25228 14.9458 6.16992C14.6772 6.08756 14.389 6.04639 14.0811 6.04639L13.6997 6.04639L13.6997 4.95605L14.1025 4.95605C14.5358 4.95605 14.9404 5.02409 15.3164 5.16016C15.6924 5.29622 16.0182 5.50033 16.2939 5.77246C16.5697 6.04818 16.7863 6.39014 16.9438 6.79834C17.1014 7.21012 17.1802 7.68994 17.1802 8.23779C17.1802 8.78564 17.0996 9.26904 16.9385 9.68799C16.7773 10.1105 16.5482 10.4632 16.251 10.7461C15.9574 11.0326 15.6029 11.2492 15.1875 11.396C14.7757 11.5428 14.3192 11.6162 13.8179 11.6162Z" fill="white"/>
<path d="M17.019 14.5435L15.0156 14.5435L15.0156 19.646L14.0757 19.646L14.0757 14.5435L12.1475 14.5435C11.7142 14.5435 11.3436 14.5811 11.0356 14.6562C10.7313 14.7314 10.4806 14.8496 10.2837 15.0107C10.0903 15.1719 9.94889 15.376 9.85937 15.623C9.76986 15.8737 9.7251 16.1745 9.7251 16.5254C9.7251 16.8691 9.76986 17.1646 9.85937 17.4116C9.94889 17.6623 10.0903 17.8682 10.2837 18.0293C10.4806 18.1904 10.7313 18.3086 11.0356 18.3838C11.3436 18.4626 11.7142 18.502 12.1475 18.502L12.3193 18.502L12.3193 19.5923L12.0132 19.5923C10.9569 19.5923 10.1637 19.3309 9.63379 18.8081C9.10742 18.2853 8.84424 17.5208 8.84424 16.5146C8.84424 15.512 9.10921 14.7511 9.63916 14.2319C10.1727 13.7127 10.964 13.4531 12.0132 13.4531L17.019 13.4531L17.019 14.5435Z" fill="white"/>
<path d="M9.93994 27.23L9.93994 28.5728L9 28.5728L9 26.1396L13.8716 26.1396C14.3048 26.1396 14.6737 26.1003 14.978 26.0215C15.286 25.9463 15.5366 25.8281 15.73 25.667C15.9269 25.5059 16.0701 25.3 16.1597 25.0493C16.2492 24.7987 16.2939 24.4997 16.2939 24.1523C16.2939 23.8014 16.2474 23.5007 16.1543 23.25C16.0612 23.0029 15.9162 22.7988 15.7192 22.6377C15.5259 22.4801 15.2752 22.3638 14.9673 22.2886C14.6629 22.217 14.2977 22.1812 13.8716 22.1812L13.6997 22.1812L13.6997 21.0908L14.0059 21.0908C15.0622 21.0908 15.8535 21.3486 16.3799 21.8643C16.9098 22.3799 17.1748 23.1462 17.1748 24.1631C17.1748 25.1729 16.908 25.9355 16.3745 26.4512C15.841 26.9704 15.0514 27.23 14.0059 27.23L9.93994 27.23Z" fill="white"/>
<path d="M10.2515 33.3853L9.79492 34.4326L8.68848 34.4326L10.4341 30.2808L11.5728 30.2808L11.0195 31.5537C10.9801 31.6468 10.9479 31.7596 10.9229 31.8921C10.9014 32.0246 10.8906 32.166 10.8906 32.3164C10.8906 32.7246 10.9676 33.0952 11.1216 33.4282C11.2756 33.7648 11.485 34.0513 11.75 34.2876C12.015 34.5239 12.3247 34.7065 12.6792 34.8354C13.0337 34.9679 13.4132 35.0342 13.8179 35.0342C14.6164 35.0342 15.2287 34.8462 15.6548 34.4702C16.0845 34.0942 16.2993 33.5339 16.2993 32.7891C16.2993 32.4167 16.2456 32.0908 16.1382 31.8115C16.0308 31.5358 15.8786 31.3066 15.6816 31.124C15.4883 30.9414 15.2555 30.8053 14.9834 30.7158C14.7113 30.6263 14.4105 30.5815 14.0811 30.5815L13.6997 30.5815L13.6997 29.4912L14.1025 29.4912C14.5609 29.4912 14.978 29.5646 15.354 29.7114C15.7336 29.8582 16.0576 30.0713 16.3262 30.3506C16.5983 30.6299 16.8078 30.9718 16.9546 31.3765C17.105 31.7847 17.1802 32.2502 17.1802 32.7729C17.1802 33.2957 17.105 33.7648 16.9546 34.1802C16.8078 34.5991 16.5911 34.9536 16.3047 35.2437C16.0182 35.5373 15.6655 35.7611 15.2466 35.915C14.8312 36.0726 14.355 36.1514 13.8179 36.1514C13.4025 36.1514 12.9961 36.0833 12.5986 35.9473C12.2012 35.8148 11.8395 35.625 11.5137 35.3779C11.1878 35.1344 10.9121 34.8426 10.6865 34.5024C10.4645 34.1659 10.3195 33.7935 10.2515 33.3853Z" fill="white"/>
</svg>
